<svg width="32" height="15" viewBox="0 0 32 15" fill="none" xmlns="http://www.w3.org/2000/svg">
<path d="M22.2645 2.11231C24.5669 4.3728 26.8884 6.61323 29.2292 8.83398C29.1328 8.46913 29.0363 8.10427 28.9399 7.73942C28.1836 9.74604 25.6737 11.5437 23.9545 12.6734C22.7493 13.4654 23.8753 15.4145 25.0901 14.6162C27.4785 13.0467 30.076 11.0798 31.1095 8.33756C31.2447 7.97881 31.0891 7.49809 30.8202 7.24299C28.4794 5.02225 26.1579 2.78181 23.8555 0.521316C22.8214 -0.493963 21.2291 1.0958 22.2645 2.11231Z" fill="#1E92FF"/>
<path d="M29.1701 7.17567C19.809 7.16924 10.4479 7.1628 1.08674 7.15637C-0.361074 7.15538 -0.363386 9.40538 1.08674 9.40637C10.4479 9.4128 19.809 9.41924 29.1701 9.42567C30.6179 9.42666 30.6202 7.17666 29.1701 7.17567Z" fill="#1E92FF"/>
</svg>
