<svg width="18" height="21" viewBox="0 0 18 21" fill="none" xmlns="http://www.w3.org/2000/svg">
<path d="M16.8875 8.90316L2.76581 0.749939C2.18857 0.416687 1.49933 0.416687 0.921936 0.749939C0.917206 0.752685 0.912933 0.755737 0.908203 0.758484C0.899963 0.763366 0.891724 0.768402 0.883636 0.773742C0.329895 1.11111 0 1.69537 0 2.34677V18.6532C0 19.3199 0.344696 19.9168 0.921936 20.25C1.21063 20.4167 1.52725 20.5 1.84387 20.5C2.16049 20.5 2.47726 20.4167 2.76581 20.25L16.8877 12.0968C17.4649 11.7636 17.8096 11.1666 17.8096 10.5C17.8096 9.83333 17.4649 9.23641 16.8875 8.90316ZM1.18668 18.7919C1.17813 18.749 1.17294 18.7031 1.17294 18.6532V2.34677C1.17294 2.25903 1.18774 2.18258 1.2114 2.11606L9.19281 10.4411L1.18668 18.7919ZM2.89856 2.18091L12.0477 7.46319L10.0053 9.59361L2.89856 2.18091ZM2.64542 18.9652L10.0052 11.2884L12.1205 13.4948L2.64542 18.9652ZM16.3011 11.081L13.1664 12.8909L10.8177 10.4411L13.0936 8.06713L16.3011 9.91893C16.6039 10.0938 16.6367 10.3836 16.6367 10.5C16.6367 10.6164 16.6039 10.9062 16.3011 11.081Z" fill="#1E92FF"/>
</svg>
