<svg width="21" height="21" viewBox="0 0 21 21" fill="none" xmlns="http://www.w3.org/2000/svg">
<g clip-path="url(#clip0_1_113)">
<path d="M4.30664 0H16.6934C19.068 0 21 1.93196 21 4.30664V16.6934C21 19.068 19.068 21 16.6934 21H4.30664C1.93196 21 0 19.068 0 16.6934V4.30664C0 1.93196 1.93196 0 4.30664 0ZM1.23047 16.6934C1.23047 18.3896 2.61044 19.7695 4.30664 19.7695H16.6934C18.3896 19.7695 19.7695 18.3896 19.7695 16.6934V4.30664C19.7695 2.61044 18.3896 1.23047 16.6934 1.23047H4.30664C2.61044 1.23047 1.23047 2.61044 1.23047 4.30664V16.6934Z" fill="#1E92FF"/>
<path d="M8.46276 5.06668C8.53368 4.80213 8.70332 4.58097 8.94051 4.44406C9.43007 4.16138 10.0584 4.32967 10.3412 4.8194L10.499 5.09273L10.6569 4.81936C10.9396 4.32975 11.5679 4.16138 12.0575 4.44402H12.0576C12.5472 4.72674 12.7155 5.35506 12.4329 5.84475L11.6831 7.14347L14.4497 11.9355H16.4668C17.0322 11.9355 17.4922 12.3955 17.4922 12.9609C17.4922 13.5263 17.0322 13.9863 16.4668 13.9863H8.67957L9.86361 11.9355H12.0817L8.56522 5.84479C8.42827 5.60759 8.39185 5.33123 8.46276 5.06668Z" fill="#1E92FF"/>
<path d="M4.53322 11.9356H6.55029L8.84335 7.96387L10.0273 10.0146L6.46702 16.1813C6.33007 16.4185 6.109 16.5882 5.84437 16.6591C5.75602 16.6828 5.6664 16.6945 5.57731 16.6945C5.39963 16.6945 5.22425 16.6479 5.06622 16.5566C4.57657 16.2739 4.40825 15.6456 4.69097 15.156L5.36629 13.9864H4.53322C3.96782 13.9864 3.50783 13.5264 3.50783 12.961C3.50783 12.3956 3.96782 11.9356 4.53322 11.9356Z" fill="#1E92FF"/>
<path d="M16.1065 14.8066L16.3082 15.1559C16.5908 15.6456 16.4225 16.2739 15.9328 16.5566C15.7717 16.6496 15.5957 16.6938 15.4218 16.6938C15.0672 16.6938 14.7218 16.5099 14.5321 16.1813L13.7384 14.8066H16.1065Z" fill="#1E92FF"/>
</g>
<defs>
<clipPath id="clip0_1_113">
<rect width="21" height="21" fill="white" transform="matrix(-1 0 0 1 21 0)"/>
</clipPath>
</defs>
</svg>
